<svg id="Layer_1" data-name="Layer 1" xmlns="http://www.w3.org/2000/svg" viewBox="0 0 149 68.33"><title>dd-logo</title><path d="M408.6,278.61v0l0,0Zm-43.81,38.46,0,0,0,0Zm59.84-39,0,0,0,0ZM460,296.28a5.58,5.58,0,0,0,1-3.79v-5a4.08,4.08,0,0,0,1.7.76c0.75,0.14,3.29.33,4.7-3.37a10.14,10.14,0,0,0,.67-3.35c0-2.41-1.71-5-4.46-5a4.2,4.2,0,0,0-3.49,2l-0.2-.27,0,0a4.74,4.74,0,0,0-7.6.38,4.4,4.4,0,0,0-.67,1.48l-1.41-1.73a4.48,4.48,0,0,0-3.63-1.86,4.75,4.75,0,0,0-4.37,2.6,4.72,4.72,0,0,0-4.29-2.6,4.88,4.88,0,0,0-4.17,2.43,4.88,4.88,0,0,0-4.16-2.43,4.73,4.73,0,0,0-4,2.19l-0.28.41a4.47,4.47,0,0,0-.7-1,4.84,4.84,0,0,0-3.6-1.61,4.6,4.6,0,0,0-4.25,2.66,5.06,5.06,0,0,0-.56-0.88l0,0a4.74,4.74,0,0,0-7.6.37,4.4,4.4,0,0,0-.67,1.48l-1.41-1.73a4.48,4.48,0,0,0-3.63-1.86,4.76,4.76,0,0,0-4.29,2.45,4.89,4.89,0,0,0-4.22-2.45,4.77,4.77,0,0,0-3.71,1.81,4.21,4.21,0,0,0-.74,1.27,4.44,4.44,0,0,0-1-1.58,4.8,4.8,0,0,0-7.27.33l0,0a4.75,4.75,0,0,0-1,3.09,10.32,10.32,0,0,0-1.82-2.12,10.93,10.93,0,0,0-7.62-2.71h-3.55c-2.49,0-4.3,1.17-5,3.22a4.44,4.44,0,0,0-.22,1.59h-0.09a6.05,6.05,0,0,0-5.94-5H340.6a1.25,1.25,0,0,0-.34-0.76,3.86,3.86,0,0,1,.55-2.75c0,0.06.55,2.32,0.55,2.32l1.47-1.16a4.83,4.83,0,0,0,1.81-4.06,5.24,5.24,0,0,0-.15-1.26,5,5,0,0,0-4.14-3.77,7,7,0,0,0-4.74,1.29,5.85,5.85,0,0,0-2.34,4,5.24,5.24,0,0,0-.05.74,4.89,4.89,0,0,0,.28,1.62,5.26,5.26,0,0,0-5.38.58h0a5.67,5.67,0,0,0-2.55,4,4.86,4.86,0,0,0,.31,2.4,6,6,0,0,0-.74,2.9v29.33a6.06,6.06,0,0,0,6,6.07h25.29a6.06,6.06,0,0,0,5.92-4.89h0.26v0.35a4.56,4.56,0,0,0,.15,1,4.42,4.42,0,0,0,2,2.63,5.57,5.57,0,0,0,3.48.79h2.45a19.43,19.43,0,0,0,3.31-.24h0a10.64,10.64,0,0,0,5-2.59l0.36-.35,0,0a10.55,10.55,0,0,0,1.38-1.76,11.1,11.1,0,0,0,17.83,1.7l0.24-.29a4.58,4.58,0,0,0,.81,1.79l0,0.06a4.82,4.82,0,0,0,3.78,1.85,4.77,4.77,0,0,0,3.65-1.71l0,0a4.44,4.44,0,0,0,.93-2l1.41,1.81a4.6,4.6,0,0,0,3.75,1.9,4.72,4.72,0,0,0,3.73-1.8,4.47,4.47,0,0,0,.84-1.75h0l0,0.07a9.18,9.18,0,0,0,14.42.59l0.52-.64a9.77,9.77,0,0,0,1.78-6.08v-3a5.67,5.67,0,0,0,1.49.25v7l0,0.8a4.75,4.75,0,0,0,.78,2.5L437,316a4.75,4.75,0,0,0,3.89,2,4.58,4.58,0,0,0,4-2.19,5.09,5.09,0,0,0,.74-2.31l0-.54h0.5a5.11,5.11,0,0,0,.36,1.15c1.14,2.55,4.29,4.2,8,4.2a8.35,8.35,0,0,0,6.24-2.31,7.54,7.54,0,0,0,1.3-1.8,8,8,0,0,0,.9-3.7,7.3,7.3,0,0,0-2.19-5.33,4.18,4.18,0,0,0,1.4-2.33,2.9,2.9,0,0,0,4.66-1.75h0a0.64,0.64,0,0,0,0-.11l0-.4a2.9,2.9,0,0,0-5.44-1.39,6.3,6.3,0,0,0-2.3-2,4.53,4.53,0,0,0,.92-0.88C460.89,295.14,459.76,296.62,460,296.28Zm4,5.63v0h0v0ZM452.3,278.61v0l0,0Zm-17.92-.52h0l0,0Z" transform="translate(-322.11 -261.99)" style="fill:#fff;stroke:#fff;stroke-width:6px;fill-rule:evenodd"/><path d="M394.38,278.39a3,3,0,0,0-2.87,3.42v7c0,1.21-.58,1.95-1.58,1.95s-1.58-.76-1.58-2v-6.92a3.18,3.18,0,0,0-.79-2.5,2.9,2.9,0,0,0-4.42.21c-0.5.66-.6,1.08-0.6,2.73v6.18a7.37,7.37,0,0,0,1.42,5,7.32,7.32,0,0,0,11.52.47,7.73,7.73,0,0,0,1.84-5.5v-6.23c0-1.58-.13-2.1-0.68-2.76A3.07,3.07,0,0,0,394.38,278.39Zm-14.47,5.78a8.56,8.56,0,0,0-2.33-3.41,9,9,0,0,0-6.36-2.24h-3.55c-1.68,0-2.76.66-3.18,1.92a5.79,5.79,0,0,0-.13,2v9.65a7.17,7.17,0,0,0,.11,1.89,2.56,2.56,0,0,0,1.21,1.58,3.87,3.87,0,0,0,2.45.47h2.45a17.5,17.5,0,0,0,3-.21,8.74,8.74,0,0,0,6.94-8.57,8.88,8.88,0,0,0-.56-3.11h0Zm-7.34,0,0.28,0.11a3.37,3.37,0,0,1,1.87,3,3.52,3.52,0,0,1-1.42,2.79c-0.68.47-1.16,0.55-3.16,0.58v-6.76h0.47a5.58,5.58,0,0,1,2,.25h0Zm40-5.78a2.88,2.88,0,0,0-2.37,1.26,3.47,3.47,0,0,0-.53,2.29v3.26l-0.84-1-3.76-4.62a2.62,2.62,0,0,0-2.16-1.16,2.89,2.89,0,0,0-3,3.1v11.1a3.58,3.58,0,0,0,.6,2.47,2.92,2.92,0,0,0,4.55.08,3.17,3.17,0,0,0,.66-2.31v-3.68l4.58,5.86a2.77,2.77,0,0,0,2.29,1.18,2.84,2.84,0,0,0,2.26-1.08,3.73,3.73,0,0,0,.63-2.63V281.76a3.29,3.29,0,0,0-.68-2.31A2.87,2.87,0,0,0,412.55,278.39Zm16.59,8.7,2-2.93,0.93-1.36a2.73,2.73,0,0,0,.45-1.53,3,3,0,0,0-2.92-2.89,2.82,2.82,0,0,0-2.39,1.34l-3,4.43-0.2.3v-2.81a3,3,0,0,0-.76-2.29,2.92,2.92,0,0,0-5.08,2.26v11.26c0,2,1.13,3.31,2.95,3.31s2.89-1.32,2.89-3.34v-3l4.34,5.5a2.65,2.65,0,0,0,2,.87,3,3,0,0,0,2.89-2.95,2.41,2.41,0,0,0-.55-1.58Zm27.12-8.7a2.88,2.88,0,0,0-2.37,1.26,3.48,3.48,0,0,0-.53,2.29v3.26l-0.84-1-3.76-4.62a2.62,2.62,0,0,0-2.16-1.16,2.89,2.89,0,0,0-3,3.1v11.1a3.58,3.58,0,0,0,.61,2.47,2.92,2.92,0,0,0,4.55.08,3.17,3.17,0,0,0,.66-2.31v-3.68L454,295a2.77,2.77,0,0,0,2.29,1.18,2.84,2.84,0,0,0,2.26-1.08,3.74,3.74,0,0,0,.63-2.63V281.76a3.29,3.29,0,0,0-.68-2.31A2.87,2.87,0,0,0,456.26,278.39Zm7.39,0c-1.53,0-2.56,1.85-2.56,3.37a12.24,12.24,0,0,0,.16,2.41h0a2.43,2.43,0,0,0,1.87,2.18c1.23,0.24,2.07-.89,2.56-2.18h0a8.3,8.3,0,0,0,.54-2.68C466.21,280,465.17,278.39,463.65,278.39Zm-25.7,0a2.79,2.79,0,0,0-2.13.95c-0.6.66-.74,1.18-0.74,2.66v10.86a3.12,3.12,0,0,0,.74,2.42,2.93,2.93,0,0,0,4.31-.05,3.2,3.2,0,0,0,.74-2.37V282a3.46,3.46,0,0,0-.76-2.68A2.91,2.91,0,0,0,437.94,278.39Z" transform="translate(-322.11 -261.99)" style="fill:#f17e06;fill-rule:evenodd"/><path d="M432.71,301h0a2.53,2.53,0,0,0-.63-1.6,3,3,0,0,0-2.23-1,2.85,2.85,0,0,0-2.2,1.09A2.27,2.27,0,0,0,427,301h0c0,0.21,0,.45,0,0.75v7c0,1.23-.59,2-1.63,2s-1.63-.8-1.63-2.08V301.7c0-.28,0-0.52,0-0.74h0a2.66,2.66,0,0,0-.74-1.72,2.86,2.86,0,0,0-4.35.21,2.47,2.47,0,0,0-.56,1.52h0c0,0.31,0,.7,0,1.19v6.2a7.35,7.35,0,0,0,1.38,5h0l0,0a7.28,7.28,0,0,0,11.47.47c0.15-.17.29-0.34,0.42-0.52h0a8,8,0,0,0,1.41-5V302.1C432.75,301.64,432.74,301.27,432.71,301Z" transform="translate(-322.11 -261.99)" style="fill:#e9388c;fill-rule:evenodd"/><path d="M464.31,300.66a0.69,0.69,0,0,0,.8-0.7,0.62,0.62,0,0,0-.29-0.55,1.17,1.17,0,0,0-.62-0.13H463.1v2.54h0.31v-1.17H464l0.19,0.3,0.54,0.87h0.37l-0.57-.87Zm-0.42-.24h-0.48v-0.9h0.73c0.32,0,.66,0,0.66.44S464.25,300.41,463.89,300.41Z" transform="translate(-322.11 -261.99)" style="fill:#e9388c;fill-rule:evenodd"/><path d="M466.18,301a2.3,2.3,0,0,0,0-.4,2.27,2.27,0,0,0-4.55,0,2.3,2.3,0,0,0,0,.4,2.27,2.27,0,0,0,4.48,0H465.9a2,2,0,0,1-3.91,0h0a2.06,2.06,0,0,1,0-.4,2,2,0,0,1,4,0,2,2,0,0,1,0,.4h0.28Z" transform="translate(-322.11 -261.99)" style="fill:#e9388c;fill-rule:evenodd"/><path d="M378.08,313.3A8.79,8.79,0,0,0,380,304h0a8.57,8.57,0,0,0-2-3.09h0l-0.29-.27a9,9,0,0,0-6.35-2.23h-3.56c-1.67,0-2.73.65-3.14,1.89a2,2,0,0,0-.11.61h0c0,0.27,0,.68,0,1.4V304h0v8c0,0.62,0,1,0,1.27a2.7,2.7,0,0,0,.09.62,2.52,2.52,0,0,0,1.19,1.55,3.84,3.84,0,0,0,2.42.47h2.45a17.57,17.57,0,0,0,3-.21,8.74,8.74,0,0,0,4.11-2.12l0.32-.31h0ZM370.21,304v-0.28h0.53a5.42,5.42,0,0,1,2.05.28h0l0.21,0.09a3.44,3.44,0,0,1,1.9,3.08,3.59,3.59,0,0,1-1.45,2.84c-0.7.48-1.19,0.56-3.19,0.59h-0.05V304h0Z" transform="translate(-322.11 -261.99)" style="fill:#e9388c;fill-rule:evenodd"/><path d="M399,304h0a9.12,9.12,0,0,0-1.9-3.09h0a9.32,9.32,0,0,0-13.55,0h0a9,9,0,0,0-1.89,3.08h0a9,9,0,0,0-.53,3.06,9.3,9.3,0,0,0,2.33,6.2h0a9.21,9.21,0,0,0,13.76,0h0A9.16,9.16,0,0,0,399,304Zm-8.65,6.7a3.55,3.55,0,0,1-3.5-3.56A3.42,3.42,0,0,1,389,304h0a3.56,3.56,0,0,1,2.78,0h0a3.46,3.46,0,0,1,2.12,3.17A3.54,3.54,0,0,1,390.38,310.74Z" transform="translate(-322.11 -261.99)" style="fill:#e9388c;fill-rule:evenodd"/><path d="M416.12,301h0a2.86,2.86,0,0,0-.64-1.59,2.8,2.8,0,0,0-4.51.21,2.64,2.64,0,0,0-.49,1.39h0c0,0.25,0,.53,0,0.87v3.41l-1-1.2L407,301l-1.21-1.49a2.57,2.57,0,0,0-2.12-1.14,2.81,2.81,0,0,0-3,2.63,4,4,0,0,0,0,.43v11.12c0,0.3,0,.56,0,0.79a2.86,2.86,0,0,0,.57,1.66,2.87,2.87,0,0,0,4.48.08,2.73,2.73,0,0,0,.63-1.73h0c0-.17,0-0.35,0-0.56v-3.84l3.43,4.39h0l1.25,1.6a2.73,2.73,0,0,0,2.25,1.17,2.8,2.8,0,0,0,2.23-1.06,2.85,2.85,0,0,0,.59-1.71h0c0-.26,0-0.55,0-0.9V301.65A6.44,6.44,0,0,0,416.12,301Z" transform="translate(-322.11 -261.99)" style="fill:#e9388c;fill-rule:evenodd"/><path d="M448.21,301h0a2.58,2.58,0,0,0-2.32-2.44,3.12,3.12,0,0,0-.5,0h-7.32c-2.3,0-2.52,0-3.12.29a2.73,2.73,0,0,0-1.47,2.21h0c0,0.05,0,.11,0,0.16a2.71,2.71,0,0,0,.8,1.89,2.79,2.79,0,0,0,2.15.75H438v8.86c0,0.26,0,.48,0,0.69a2.73,2.73,0,0,0,2.83,2.77,2.71,2.71,0,0,0,2.35-1.29,3.18,3.18,0,0,0,.46-1.47c0-.22,0-0.46,0-0.74v-8.8h1.34a3.16,3.16,0,0,0,2.21-.62,2.86,2.86,0,0,0,.93-2S448.21,301,448.21,301Z" transform="translate(-322.11 -261.99)" style="fill:#e9388c;fill-rule:evenodd"/><path d="M459.28,306.38a11.21,11.21,0,0,0-3.73-1.84,7.57,7.57,0,0,1-1.27-.5h0a0.81,0.81,0,0,1-.5-0.76,0.75,0.75,0,0,1,.74-0.74,2,2,0,0,1,1.24.64,5.23,5.23,0,0,0,1.47.85h0a2.76,2.76,0,0,0,.89.14,2.34,2.34,0,0,0,.8-0.14h0a2.25,2.25,0,0,0,1.41-2.21,2.75,2.75,0,0,0-.14-0.88h0c-0.57-1.69-2.74-2.92-5.45-2.92A6.26,6.26,0,0,0,449,301h0a5.65,5.65,0,0,0-.7,2.8c0,0.1,0,.19,0,0.28h0c0.1,2.27,1.34,3.82,3.78,4.67,0.47,0.19.95,0.34,1.42,0.5a4.92,4.92,0,0,1,1.17.51,0.87,0.87,0,0,1,.47.78,0.76,0.76,0,0,1-.79.82c-0.44,0-.62-0.12-1.88-1.09a3,3,0,0,0-2-.83,2.56,2.56,0,0,0-2.58,2.58,3.18,3.18,0,0,0,.29,1.32h0c0.81,1.8,3.25,3.08,6.28,3.08a6.51,6.51,0,0,0,4.89-1.75,5.63,5.63,0,0,0,1-1.33h0a6.14,6.14,0,0,0,.69-2.82A5.4,5.4,0,0,0,459.28,306.38Z" transform="translate(-322.11 -261.99)" style="fill:#e9388c;fill-rule:evenodd"/><path d="M330.17,282.68a4.82,4.82,0,0,1-3.18-1.3,4.24,4.24,0,0,0-.14,1.07v3.45" transform="translate(-322.11 -261.99)" style="fill:#f17e06"/><path d="M333.26,299.2a3,3,0,0,1-2.7-1.71l-3.55-9a2.55,2.55,0,0,1-.16-0.28v23.71a4.27,4.27,0,0,0,4.26,4.26h11.17a5.49,5.49,0,0,1-1-1.37Z" transform="translate(-322.11 -261.99)" style="fill:#f17e06"/><path d="M356.51,278.19h-6.32l0,0a2.14,2.14,0,0,1,.39.92l3.55,9h0v0a2.3,2.3,0,0,1,.16.85,3.64,3.64,0,0,1-.95,2.23c0.77,2.38,2.18,7.11,4.69,16.38l0.12,0.45,0,0.17c0.88,3.12-.59,6-3.9,8h2.18a4.27,4.27,0,0,0,4.26-4.26V282.45A4.27,4.27,0,0,0,356.51,278.19Z" transform="translate(-322.11 -261.99)" style="fill:#e9388c"/><path d="M343.38,278.58h0a39.76,39.76,0,0,0-11.47,4.55c-2.79,1.63-4.24,3.12-4,4.11a0.55,0.55,0,0,1,0,.08,1.11,1.11,0,0,0,.07.3,1.08,1.08,0,0,0,.12.22,0.58,0.58,0,0,1,.06.11l3.57,9.05c0.21,0.54.89,0.85,2,.94a0.55,0.55,0,0,1,.44.29l8.24,16c1.58,3.14,6.1,3,9.62,1.61,4-1.6,5.79-4.36,4.85-7.39l-0.14-.5c-2.65-9.78-4.07-14.49-4.8-16.72a0.54,0.54,0,0,1,.12-0.54c0.76-.84,1-1.53.82-2.07l-3.57-9.06a0.53,0.53,0,0,1,0-.12,1.18,1.18,0,0,0-.06-0.25,1.1,1.1,0,0,0-.15-0.26l0-.07C348.6,278,346.52,277.85,343.38,278.58Z" transform="translate(-322.11 -261.99)" style="fill:#613a00"/><path d="M336.34,267.34h0a4.62,4.62,0,0,0-1.84,3.15c-0.26,1.82.78,3,1.69,4.11s1.86,2.18,1.32,3.92a0.64,0.64,0,0,0,0,.49,0.63,0.63,0,0,0,.38.31,0.64,0.64,0,0,0,.8-0.43c0.74-2.41-.54-3.92-1.57-5.13s-1.57-1.91-1.4-3.1a3.32,3.32,0,0,1,1.33-2.3,4.58,4.58,0,0,1,2.83-.83,2.44,2.44,0,0,1,2.08,1.87,2.66,2.66,0,0,1,.06,1,2.55,2.55,0,0,1-1,1.71h0a1.23,1.23,0,0,1-1.5,0,1,1,0,0,1-.23-1,0.79,0.79,0,0,1,.91-0.26,0.64,0.64,0,0,0,.74-0.52,0.64,0.64,0,0,0-.52-0.74,2,2,0,0,0-2.27.94,2.24,2.24,0,0,0,.48,2.55,2.51,2.51,0,0,0,3.06.19l0.08-.05a3.88,3.88,0,0,0,1.42-4.05,3.76,3.76,0,0,0-3.12-2.83A5.78,5.78,0,0,0,336.34,267.34Z" transform="translate(-322.11 -261.99)" style="fill:#613a00"/><path d="M328.82,274.3a4.5,4.5,0,0,0-2,3.09,3.61,3.61,0,0,0,.6,2.48,3.54,3.54,0,0,0,5.05.82l0,0a2.54,2.54,0,0,0,.34-3.4,1.93,1.93,0,0,0-2.83-.4,0.64,0.64,0,1,0,.72,1.07c0.61-.41.9-0.15,1.06,0.08a1.54,1.54,0,0,1,.25,1,0.85,0.85,0,0,1-.29.58,2.25,2.25,0,0,1-3.26-.48c-0.69-1-.61-2.57,1.11-3.79a2.63,2.63,0,0,1,3.53.1,3.42,3.42,0,0,1,.93,3.85,0.64,0.64,0,0,0,.74.93,0.63,0.63,0,0,0,.38-0.3,4.64,4.64,0,0,0-1.18-5.43A3.92,3.92,0,0,0,328.82,274.3Z" transform="translate(-322.11 -261.99)" style="fill:#613a00"/><path d="M346.82,281.09a37.33,37.33,0,0,0-15.67,6.32,4.4,4.4,0,0,1-2.14-.15c0.19-.72,3-3.34,9-5.69s9.69-2.46,10.32-2.07A4.42,4.42,0,0,1,346.82,281.09Z" transform="translate(-322.11 -261.99)" style="fill:#fff"/><path d="M355.76,308.71c0.78,2.55-1.17,4.68-4.13,5.87-3.11,1.25-6.87,1.31-8-1-0.4-.8-5.58-10.3-8.1-15.65a34.1,34.1,0,0,0,15.36-6.1C352.69,297.45,355.5,307.86,355.76,308.71Z" transform="translate(-322.11 -261.99)" style="fill:#fff"/><path d="M343.11,294.59c-5.44,2.16-9.56,2.32-10.2,1.8l-3-7.47c2.79,0.2,7.16-1.12,10-2.26s7-3.17,8.84-5.23l3,7.47C351.66,289.73,348.55,292.43,343.11,294.59Z" transform="translate(-322.11 -261.99)" style="fill:#fff"/><path d="M345.28,300.48h0a2.7,2.7,0,0,0-1.08-.72,3.44,3.44,0,0,0-2.2,0l-1.1.28a0.76,0.76,0,0,0-.76.75,1.68,1.68,0,0,0,.22.58l1.22,2.72a2.48,2.48,0,0,0,.27.53,1.06,1.06,0,0,0,.56.37,1.27,1.27,0,0,0,.78,0l0.72-.18a4.29,4.29,0,0,0,.84-0.3,2.32,2.32,0,0,0,.94-1,2.7,2.7,0,0,0,.09-2.14A2.64,2.64,0,0,0,345.28,300.48ZM344,302.83a1.34,1.34,0,0,1-.87.43l-0.82-1.91,0.14,0a2,2,0,0,1,.62-0.09h0.1a1.16,1.16,0,0,1,.91.69A1,1,0,0,1,344,302.83Z" transform="translate(-322.11 -261.99)" style="fill:#f17e06;fill-rule:evenodd"/><path d="M350.13,298.07h0a1.9,1.9,0,0,0-1-.62,2.75,2.75,0,0,0-2,.32l-1,.49a1,1,0,0,0-.73,1,1.75,1.75,0,0,0,.18.6l1.06,2.77a2.24,2.24,0,0,0,.24.53,0.76,0.76,0,0,0,.51.31,1.09,1.09,0,0,0,.73-0.16l0.67-.32a4.45,4.45,0,0,0,.78-0.47,3.11,3.11,0,0,0,.89-1.23,3.54,3.54,0,0,0,.12-2.35A2.42,2.42,0,0,0,350.13,298.07Zm-1.21,2.76a1.52,1.52,0,0,1-.81.6l-0.71-2,0.13-.06a1.83,1.83,0,0,1,.58-0.2h0.09a0.85,0.85,0,0,1,.82.6A1.3,1.3,0,0,1,348.92,300.83Z" transform="translate(-322.11 -261.99)" style="fill:#e9388c;fill-rule:evenodd"/><path d="M329.09,324.66h1.47l2.34,5.55h-1.64l-0.39-1h-2.13l-0.39,1h-1.6Zm1.34,3.37-0.61-1.56L329.19,328h1.24Z" transform="translate(-322.11 -261.99)" style="fill:#613a00"/><path d="M334.4,324.7H336l1.31,2.13,1.31-2.13h1.61v5.51h-1.52V327l-1.41,2.16h0l-1.4-2.15v3.15H334.4V324.7Z" transform="translate(-322.11 -261.99)" style="fill:#613a00"/><path d="M342.18,324.7h4.43V326h-2.92v0.84h2.64V328h-2.64v0.87h3v1.3h-4.47V324.7Z" transform="translate(-322.11 -261.99)" style="fill:#613a00"/><path d="M348.39,324.7H351a2.44,2.44,0,0,1,1.79.59,1.72,1.72,0,0,1,.49,1.28v0a1.74,1.74,0,0,1-1.13,1.7l1.31,1.92H351.7l-1.11-1.67h-0.68v1.67h-1.53V324.7Zm2.54,2.64a0.69,0.69,0,0,0,.82-0.65v0a0.69,0.69,0,0,0-.83-0.66h-1v1.33h1Z" transform="translate(-322.11 -261.99)" style="fill:#613a00"/><path d="M355,324.7h1.53v5.51H355V324.7Z" transform="translate(-322.11 -261.99)" style="fill:#613a00"/><path d="M358.34,327.47v0a2.82,2.82,0,0,1,2.89-2.86,2.71,2.71,0,0,1,2.34,1.14l-1.15.89a1.5,1.5,0,0,0-1.2-.64,1.37,1.37,0,0,0-1.31,1.46v0a1.36,1.36,0,0,0,1.31,1.47,1.5,1.5,0,0,0,1.24-.67l1.15,0.82A2.89,2.89,0,0,1,358.34,327.47Z" transform="translate(-322.11 -261.99)" style="fill:#613a00"/><path d="M367.08,324.66h1.47l2.34,5.55h-1.64l-0.39-1h-2.13l-0.39,1h-1.6Zm1.34,3.37-0.61-1.56L367.18,328h1.24Z" transform="translate(-322.11 -261.99)" style="fill:#613a00"/><path d="M375.52,324.7h2.6a2.44,2.44,0,0,1,1.79.59,1.72,1.72,0,0,1,.49,1.28v0a1.74,1.74,0,0,1-1.13,1.7l1.31,1.92h-1.75l-1.11-1.67H377v1.67h-1.53V324.7Zm2.54,2.64a0.69,0.69,0,0,0,.82-0.65v0A0.69,0.69,0,0,0,378,326h-1v1.33h1Z" transform="translate(-322.11 -261.99)" style="fill:#613a00"/><path d="M382.06,327.79V324.7h1.54v3.06a1,1,0,0,0,1,1.17,1,1,0,0,0,1-1.13v-3.1h1.54v3.05a2.31,2.31,0,0,1-2.58,2.56A2.27,2.27,0,0,1,382.06,327.79Z" transform="translate(-322.11 -261.99)" style="fill:#613a00"/><path d="M389,324.7h1.42l2.27,2.91V324.7h1.51v5.51h-1.33l-2.36-3v3H389V324.7Z" transform="translate(-322.11 -261.99)" style="fill:#613a00"/><path d="M395.75,329.39l0.85-1a2.85,2.85,0,0,0,1.79.66c0.42,0,.64-0.14.64-0.38v0c0-.24-0.18-0.35-0.94-0.54-1.17-.27-2.08-0.6-2.08-1.72v0a1.86,1.86,0,0,1,2.13-1.76,3.47,3.47,0,0,1,2.27.73l-0.76,1.08a2.7,2.7,0,0,0-1.54-.54c-0.37,0-.55.15-0.55,0.35v0c0,0.25.19,0.36,1,.53,1.26,0.28,2,.68,2,1.72v0c0,1.12-.89,1.79-2.23,1.79A3.86,3.86,0,0,1,395.75,329.39Z" transform="translate(-322.11 -261.99)" style="fill:#613a00"/><path d="M405.2,327.47v0a3,3,0,0,1,5.93,0v0A3,3,0,0,1,405.2,327.47Zm4.37,0v0a1.42,1.42,0,0,0-1.41-1.49,1.4,1.4,0,0,0-1.4,1.47v0a1.43,1.43,0,0,0,1.42,1.49A1.4,1.4,0,0,0,409.57,327.47Z" transform="translate(-322.11 -261.99)" style="fill:#613a00"/><path d="M412.87,324.7h1.42l2.27,2.91V324.7h1.51v5.51h-1.33l-2.36-3v3h-1.51V324.7Z" transform="translate(-322.11 -261.99)" style="fill:#613a00"/><path d="M423.13,324.7h2.13c2,0,3.1,1.13,3.1,2.72v0c0,1.59-1.16,2.77-3.13,2.77h-2.1V324.7Zm1.53,1.35v2.81h0.62a1.35,1.35,0,0,0,1.53-1.39v0a1.36,1.36,0,0,0-1.53-1.4h-0.62Z" transform="translate(-322.11 -261.99)" style="fill:#613a00"/><path d="M430,327.79V324.7h1.54v3.06a1,1,0,0,0,1,1.17,1,1,0,0,0,1-1.13v-3.1h1.54v3.05a2.31,2.31,0,0,1-2.58,2.56A2.27,2.27,0,0,1,430,327.79Z" transform="translate(-322.11 -261.99)" style="fill:#613a00"/><path d="M437,324.7h1.42l2.27,2.91V324.7h1.51v5.51H440.9l-2.36-3v3H437V324.7Z" transform="translate(-322.11 -261.99)" style="fill:#613a00"/><path d="M444.16,324.7h1.53v2.23l1.9-2.23h1.81l-2.08,2.36,2.16,3.15h-1.83l-1.39-2-0.56.61v1.43h-1.53V324.7Z" transform="translate(-322.11 -261.99)" style="fill:#613a00"/><path d="M450.89,324.7h1.53v5.51h-1.53V324.7Z" transform="translate(-322.11 -261.99)" style="fill:#613a00"/><path d="M454.38,324.7h1.42l2.27,2.91V324.7h1.51v5.51h-1.33l-2.36-3v3h-1.51V324.7Z" transform="translate(-322.11 -261.99)" style="fill:#613a00"/><path d="M461.21,327a0.73,0.73,0,0,0,.79-0.74h-0.61V324.7h1.55V326a1.43,1.43,0,0,1-1.61,1.6Z" transform="translate(-322.11 -261.99)" style="fill:#613a00"/><path d="M463.84,326.41h0a1.82,1.82,0,0,1,3.65,0h0A1.82,1.82,0,0,1,463.84,326.41Zm3.46,0h0a1.63,1.63,0,1,0-3.26,0h0A1.63,1.63,0,1,0,467.29,326.4Zm-2.37-1h0.85a0.81,0.81,0,0,1,.58.2,0.56,0.56,0,0,1,.16.4h0a0.58,0.58,0,0,1-.44.58l0.51,0.72h-0.43l-0.46-.66h-0.4v0.66h-0.36v-1.91Zm0.84,0.93a0.32,0.32,0,0,0,.38-0.3h0a0.31,0.31,0,0,0-.38-0.3h-0.47v0.6h0.47Z" transform="translate(-322.11 -261.99)" style="fill:#613a00"/></svg>